<svg xmlns="http://www.w3.org/2000/svg" xmlns:xlink="http://www.w3.org/1999/xlink" xmlns:serif="http://www.serif.com/" width="100%" height="100%" viewBox="0 0 24 24" xml:space="preserve" style="fill-rule:evenodd;clip-rule:evenodd;stroke-linejoin:round;stroke-miterlimit:2;"><g id="Icon"><path d="M17.945,9.555c-0.516,-0.515 -1.216,-0.805 -1.945,-0.805l-12,-0c-0.729,0 -1.429,0.29 -1.945,0.805c-0.515,0.516 -0.805,1.216 -0.805,1.945c0,2.333 0,6.167 0,8.5c-0,0.729 0.29,1.429 0.805,1.945c0.516,0.515 1.216,0.805 1.945,0.805l7,-0c0.414,-0 0.75,-0.336 0.75,-0.75c0,-0.414 -0.336,-0.75 -0.75,-0.75l-7,-0c-0.332,-0 -0.649,-0.132 -0.884,-0.366c-0.234,-0.235 -0.366,-0.552 -0.366,-0.884l0,-8.5c-0,-0.332 0.132,-0.649 0.366,-0.884c0.235,-0.234 0.552,-0.366 0.884,-0.366c0,-0 12,-0 12,-0c0.332,0 0.649,0.132 0.884,0.366c0.293,0.293 0.768,0.293 1.061,0c0.292,-0.293 0.292,-0.768 -0,-1.061Z"></path><path d="M10,1.25c-1.649,0 -3.228,0.6 -4.394,1.66c-1.192,1.084 -1.856,2.557 -1.856,4.09c0,1.377 0,2.5 0,2.5c0,0.414 0.336,0.75 0.75,0.75l11,-0c0.414,-0 0.75,-0.336 0.75,-0.75l0,-2.5c0,-1.533 -0.664,-3.006 -1.856,-4.09c-1.166,-1.06 -2.745,-1.66 -4.394,-1.66Zm0,1.5c1.269,0 2.487,0.454 3.385,1.269c0.87,0.792 1.365,1.862 1.365,2.981c0,0 0,1.75 0,1.75c-0,-0 -9.5,-0 -9.5,-0c0,0 0,-1.75 0,-1.75c-0,-1.119 0.495,-2.189 1.365,-2.981c0.898,-0.815 2.116,-1.269 3.385,-1.269l0,0Z"></path><path d="M18,12.25c-1.794,0 -3.25,1.456 -3.25,3.25c-0,1.794 1.456,3.25 3.25,3.25c1.794,0 3.25,-1.456 3.25,-3.25c-0,-1.794 -1.456,-3.25 -3.25,-3.25Zm-0,1.5c0.966,0 1.75,0.784 1.75,1.75c-0,0.966 -0.784,1.75 -1.75,1.75c-0.966,0 -1.75,-0.784 -1.75,-1.75c-0,-0.966 0.784,-1.75 1.75,-1.75Z"></path><path d="M14.638,22.364c0.656,-1.183 1.917,-1.984 3.365,-1.984c1.422,-0 2.665,0.774 3.33,1.923c0.207,0.358 0.667,0.481 1.025,0.273c0.358,-0.207 0.481,-0.666 0.273,-1.024c-0.924,-1.597 -2.652,-2.672 -4.628,-2.672c-2.011,-0 -3.765,1.113 -4.677,2.756c-0.201,0.362 -0.07,0.819 0.292,1.02c0.362,0.201 0.819,0.07 1.02,-0.292Z"></path></g></svg>