<svg xmlns="http://www.w3.org/2000/svg" viewBox="0 0 64 64"><g id="Idea"><path d="M47.8359,7.5459A23.7435,23.7435,0,1,0,21.043,46.3a1.61,1.61,0,0,1,.8945,1.4146v4.7988a1.75,1.75,0,0,0,1.75,1.75H40.2041a1.75,1.75,0,0,0,1.75-1.75V47.77a1.6192,1.6192,0,0,1,.91-1.4248A23.7343,23.7343,0,0,0,47.8359,7.5459ZM41.2607,43.2344A5.1044,5.1044,0,0,0,38.4541,47.77v2.9932H33.75v-14.44h2.0967a6.3137,6.3137,0,0,0,1.75-12.38v-2.044a1.75,1.75,0,1,0-3.5,0v3.5474a1.75,1.75,0,0,0,1.75,1.75,2.8133,2.8133,0,0,1,0,5.6265H27.9409a2.8133,2.8133,0,1,1,0-5.6265,1.75,1.75,0,0,0,1.75-1.75V21.8989a1.75,1.75,0,1,0-3.5,0v2.044a6.3137,6.3137,0,0,0,1.75,12.38H30.25v14.44H25.4375V47.7144A5.0962,5.0962,0,0,0,22.66,43.1963a20.25,20.25,0,1,1,18.6005.0381Z"></path><path d="M39.9883,58.5708H23.9517a1.75,1.75,0,1,0,0,3.5H39.9883a1.75,1.75,0,0,0,0-3.5Z"></path></g></svg>