<svg xmlns="http://www.w3.org/2000/svg" viewBox="0 0 64 64"><g id="algorithm"><path d="M53,54H32.351l-7.5-6H35a3,3,0,0,0,3-3V43a1,1,0,0,0-.529-.882l-15-8a1,1,0,0,0-.877-.032L14,37.461V37a1,1,0,0,0-1-1H9a1,1,0,0,0-1,1v1H3a1,1,0,0,0-1,1V53a1,1,0,0,0,1,1H8v1a1,1,0,0,0,1,1h4a.993.993,0,0,0,.986-.93l8.389,6.711A1,1,0,0,0,23,62H55a1,1,0,0,0,1-1V57A3,3,0,0,0,53,54ZM4,52V40H8V52Zm8,2H10V38h2Zm42,6H23.351L14,52.519V39.65l7.96-3.538L36,43.6V45a1,1,0,0,1-1,1H22a1,1,0,0,0-.625,1.781l10,8A1,1,0,0,0,32,56H53a1,1,0,0,1,1,1Z"></path><rect x="39" y="19" width="2" height="2"></rect><rect x="43" y="19" width="2" height="2"></rect><rect x="47" y="19" width="2" height="2"></rect><path d="M59.493,15.735l-1.724-.287a.971.971,0,0,1-.748-.591c-.057-.144-.116-.286-.177-.428a.974.974,0,0,1,.111-.947l1.016-1.421a2.992,2.992,0,0,0-.32-3.866L55.805,6.348a2.993,2.993,0,0,0-3.866-.319L50.518,7.045a.977.977,0,0,1-.947.112q-.212-.091-.428-.178a.968.968,0,0,1-.59-.749l-.288-1.723A2.991,2.991,0,0,0,45.306,2H42.694a2.991,2.991,0,0,0-2.959,2.506l-.288,1.725a.971.971,0,0,1-.591.749c-.143.057-.286.116-.427.177a.979.979,0,0,1-.947-.113L36.061,6.029a2.992,2.992,0,0,0-3.866.32l-.216.216L27.707,2.293A1,1,0,0,0,27,2H6A1,1,0,0,0,5,3V8.142a4,4,0,1,0,2,0V4H26.586l3.979,3.979-.216.216a2.991,2.991,0,0,0-.32,3.865l1.016,1.423a.973.973,0,0,1,.111.947q-.091.212-.177.427a.971.971,0,0,1-.748.591l-1.724.287A2.991,2.991,0,0,0,26,18.694V19H11a1,1,0,0,0-1,1v3.142a4,4,0,1,0,2,0V21H26v.306a2.991,2.991,0,0,0,2.507,2.959l1.724.287a.971.971,0,0,1,.748.591c.057.144.116.286.177.428a.974.974,0,0,1-.111.947l-1.016,1.421a2.992,2.992,0,0,0,.32,3.866L32.2,33.652a2.993,2.993,0,0,0,3.866.319l1.421-1.015a.977.977,0,0,1,.947-.113q.212.091.428.178a.968.968,0,0,1,.59.749l.288,1.723A2.991,2.991,0,0,0,42.694,38H43V49a1,1,0,0,0,1,1h9.142a4,4,0,1,0,0-2H45V38h.306a2.991,2.991,0,0,0,2.959-2.506l.288-1.725a.971.971,0,0,1,.591-.749c.143-.057.286-.116.427-.177a.972.972,0,0,1,.947.113l1.421,1.015a2.993,2.993,0,0,0,3.866-.32l1.846-1.846a2.991,2.991,0,0,0,.32-3.865l-1.016-1.423a.973.973,0,0,1-.111-.947q.092-.212.177-.427a.971.971,0,0,1,.748-.591l1.724-.287A2.991,2.991,0,0,0,62,21.306V18.694A2.991,2.991,0,0,0,59.493,15.735ZM8,12a2,2,0,1,1-2-2A2,2,0,0,1,8,12Zm5,15a2,2,0,1,1-2-2A2,2,0,0,1,13,27ZM57,47a2,2,0,1,1-2,2A2,2,0,0,1,57,47Zm3-25.694a1,1,0,0,1-.835.986l-1.725.288a2.983,2.983,0,0,0-2.281,1.83c-.049.124-.1.246-.151.366a2.984,2.984,0,0,0,.32,2.9L56.344,29.1a1,1,0,0,1-.107,1.288l-1.846,1.846a1,1,0,0,1-1.289.106L51.68,31.328a2.98,2.98,0,0,0-2.9-.32c-.12.053-.243.1-.366.151a2.98,2.98,0,0,0-1.83,2.28l-.288,1.726a1,1,0,0,1-.986.835H42.694a1,1,0,0,1-.986-.836L41.42,33.44a2.977,2.977,0,0,0-1.829-2.28c-.124-.049-.247-.1-.367-.152a2.916,2.916,0,0,0-1.16-.238,3,3,0,0,0-1.744.558L34.9,32.343a1,1,0,0,1-1.289-.106l-1.846-1.846a1,1,0,0,1-.107-1.289l1.016-1.422a2.981,2.981,0,0,0,.32-2.9c-.052-.122-.1-.244-.151-.368a2.983,2.983,0,0,0-2.281-1.83l-1.725-.288A1,1,0,0,1,28,21.306V18.694a1,1,0,0,1,.835-.986l1.725-.288a2.983,2.983,0,0,0,2.281-1.83c.049-.124.1-.246.151-.366a2.984,2.984,0,0,0-.32-2.9L31.656,10.9a1,1,0,0,1,.107-1.288l1.846-1.846A1,1,0,0,1,34.9,7.657L36.32,8.672a2.982,2.982,0,0,0,2.9.32c.12-.053.243-.1.366-.151a2.98,2.98,0,0,0,1.83-2.28l.288-1.726A1,1,0,0,1,42.694,4h2.612a1,1,0,0,1,.986.836L46.58,6.56a2.977,2.977,0,0,0,1.829,2.28c.124.049.247.1.367.152a2.985,2.985,0,0,0,2.9-.32L53.1,7.657a1,1,0,0,1,1.289.106l1.846,1.846a1,1,0,0,1,.107,1.289L55.328,12.32a2.981,2.981,0,0,0-.32,2.9c.052.122.1.244.151.368a2.983,2.983,0,0,0,2.281,1.83l1.725.288a1,1,0,0,1,.835.986Z"></path><path d="M44,11a9,9,0,1,0,9,9A9.01,9.01,0,0,0,44,11Zm0,16a7,7,0,1,1,7-7A7.008,7.008,0,0,1,44,27Z"></path></g></svg>