<svg xmlns="http://www.w3.org/2000/svg" xmlns:xlink="http://www.w3.org/1999/xlink" id="Layer_1_1_" x="0px" y="0px" viewBox="0 0 64 64" style="enable-background:new 0 0 64 64;" xml:space="preserve"><path d="M44.728,23.515l-4.242-4.242c-0.391-0.391-1.023-0.391-1.414,0l-1.902,1.902C36.79,20.995,36.4,20.834,36,20.693V18 c0-0.553-0.447-1-1-1h-6c-0.553,0-1,0.447-1,1v2.693c-0.4,0.141-0.79,0.302-1.169,0.481l-1.902-1.902 c-0.391-0.391-1.023-0.391-1.414,0l-4.242,4.242c-0.391,0.391-0.391,1.023,0,1.414l1.902,1.902C20.995,27.21,20.834,27.6,20.693,28 H18c-0.553,0-1,0.447-1,1v6c0,0.553,0.447,1,1,1h2.693c0.141,0.4,0.302,0.79,0.481,1.169l-1.902,1.902 c-0.391,0.391-0.391,1.023,0,1.414l4.242,4.242c0.391,0.391,1.023,0.391,1.414,0l1.902-1.902c0.379,0.18,0.769,0.341,1.169,0.481V46 c0,0.553,0.447,1,1,1h6c0.553,0,1-0.447,1-1v-2.693c0.4-0.141,0.79-0.302,1.169-0.481l1.902,1.902c0.391,0.391,1.023,0.391,1.414,0 l4.242-4.242c0.391-0.391,0.391-1.023,0-1.414l-1.902-1.902c0.18-0.379,0.341-0.769,0.481-1.169H46c0.553,0,1-0.447,1-1v-6 c0-0.553-0.447-1-1-1h-2.693c-0.141-0.4-0.302-0.79-0.481-1.169l1.902-1.902C45.118,24.538,45.118,23.905,44.728,23.515z M45,30v4 h-2.425c-0.447,0-0.84,0.297-0.962,0.728c-0.215,0.758-0.513,1.479-0.885,2.144c-0.218,0.391-0.15,0.879,0.166,1.195l1.712,1.712 l-2.828,2.828l-1.712-1.712c-0.317-0.316-0.805-0.383-1.195-0.166c-0.664,0.372-1.386,0.67-2.144,0.885 C34.297,41.735,34,42.128,34,42.575V45h-4v-2.425c0-0.447-0.297-0.84-0.728-0.962c-0.758-0.215-1.479-0.513-2.144-0.885 c-0.391-0.216-0.879-0.149-1.195,0.166l-1.712,1.712l-2.828-2.828l1.712-1.712c0.316-0.316,0.384-0.805,0.166-1.195 c-0.372-0.664-0.67-1.386-0.885-2.144C22.265,34.297,21.872,34,21.425,34H19v-4h2.425c0.447,0,0.84-0.297,0.962-0.728 c0.215-0.758,0.513-1.479,0.885-2.144c0.218-0.391,0.15-0.879-0.166-1.195l-1.712-1.712l2.828-2.828l1.712,1.712 c0.316,0.316,0.804,0.383,1.195,0.166c0.664-0.372,1.386-0.67,2.144-0.885C29.703,22.265,30,21.872,30,21.425V19h4v2.425 c0,0.447,0.297,0.84,0.728,0.962c0.758,0.215,1.479,0.513,2.144,0.885c0.391,0.218,0.879,0.15,1.195-0.166l1.712-1.712l2.828,2.828 l-1.712,1.712c-0.316,0.316-0.384,0.805-0.166,1.195c0.372,0.664,0.67,1.386,0.885,2.144C41.735,29.703,42.128,30,42.575,30H45z"></path><path d="M32,24c-4.411,0-8,3.589-8,8s3.589,8,8,8s8-3.589,8-8S36.411,24,32,24z M32,38c-3.309,0-6-2.691-6-6s2.691-6,6-6 s6,2.691,6,6S35.309,38,32,38z"></path><path d="M12,57c0-2.757-2.243-5-5-5s-5,2.243-5,5s2.243,5,5,5S12,59.757,12,57z M4,57c0-1.654,1.346-3,3-3s3,1.346,3,3s-1.346,3-3,3 S4,58.654,4,57z"></path><path d="M24,2h-9c-4.963,0-9,4.037-9,9v39h2V11c0-3.859,3.141-7,7-7h9c3.859,0,7,3.141,7,7h2C33,6.037,28.963,2,24,2z"></path><rect x="31" y="13" width="2" height="2"></rect><path d="M49,60h-9c-3.859,0-7-3.141-7-7h-2c0,4.963,4.037,9,9,9h9c4.963,0,9-4.037,9-9V10h3c0.369,0,0.708-0.203,0.882-0.528 s0.154-0.72-0.05-1.026l-4-6c-0.371-0.557-1.293-0.557-1.664,0l-4,6c-0.204,0.307-0.224,0.701-0.05,1.026S52.631,10,53,10h3v43 C56,56.859,52.859,60,49,60z M54.868,8L57,4.803L59.132,8H54.868z"></path><rect x="31" y="49" width="2" height="2"></rect></svg>