<svg xmlns="http://www.w3.org/2000/svg" width="64" height="64" viewBox="0 0 64 64" fill="none"><path d="M19 44H18.889C19.5572 43.35 20.0883 42.5726 20.4509 41.7138C20.8135 40.855 21.0002 39.9322 21 39V35C20.9989 33.6167 20.588 32.2647 19.8191 31.1148C19.0503 29.9648 17.9579 29.0685 16.68 28.5388C15.4021 28.0092 13.9959 27.8701 12.639 28.1391C11.2821 28.408 10.0353 29.073 9.056 30.05C8.40103 30.6967 7.88178 31.4676 7.52873 32.3176C7.17567 33.1676 6.99592 34.0796 7 35C7 35.2652 7.10536 35.5196 7.29289 35.7071C7.48043 35.8947 7.73478 36 8 36H9.4C11.7054 36.0022 13.9691 35.3847 15.954 34.212L17.8 35.6C18.1716 35.8804 18.4733 36.2429 18.6815 36.6593C18.8897 37.0756 18.9987 37.5345 19 38V39C19 40.3261 18.4732 41.5979 17.5355 42.5355C16.5979 43.4732 15.3261 44 14 44C12.6739 44 11.4021 43.4732 10.4645 42.5355C9.52678 41.5979 9 40.3261 9 39C9 38.7348 8.89464 38.4804 8.70711 38.2929C8.51957 38.1054 8.26522 38 8 38C7.73478 38 7.48043 38.1054 7.29289 38.2929C7.10536 38.4804 7 38.7348 7 39C6.99978 39.9322 7.18649 40.855 7.54908 41.7138C7.91166 42.5726 8.44277 43.35 9.111 44H9C7.14413 44.0021 5.36489 44.7403 4.05259 46.0526C2.7403 47.3649 2.00212 49.1441 2 51V61C2 61.2652 2.10536 61.5196 2.29289 61.7071C2.48043 61.8947 2.73478 62 3 62C3.26522 62 3.51957 61.8947 3.70711 61.7071C3.89464 61.5196 4 61.2652 4 61V56H7V61C7 61.2652 7.10536 61.5196 7.29289 61.7071C7.48043 61.8947 7.73478 62 8 62C8.26522 62 8.51957 61.8947 8.70711 61.7071C8.89464 61.5196 9 61.2652 9 61V53C9 52.7348 8.89464 52.4804 8.70711 52.2929C8.51957 52.1054 8.26522 52 8 52C7.73478 52 7.48043 52.1054 7.29289 52.2929C7.10536 52.4804 7 52.7348 7 53V54H4V51C4.00159 49.6744 4.52888 48.4036 5.46622 47.4662C6.40356 46.5289 7.6744 46.0016 9 46H10C10.0001 46.2652 10.1055 46.5195 10.293 46.707L13.293 49.707C13.4805 49.8945 13.7348 49.9998 14 49.9998C14.2652 49.9998 14.5195 49.8945 14.707 49.707L17.707 46.707C17.8946 46.5195 17.9999 46.2652 18 46H19C20.3256 46.0016 21.5964 46.5289 22.5338 47.4662C23.4711 48.4036 23.9984 49.6744 24 51C24 51.2652 24.1054 51.5196 24.2929 51.7071C24.4804 51.8947 24.7348 52 25 52C25.2652 52 25.5196 51.8947 25.7071 51.7071C25.8946 51.5196 26 51.2652 26 51C25.9979 49.1441 25.2597 47.3649 23.9474 46.0526C22.6351 44.7403 20.8559 44.0021 19 44V44ZM16.6 32.2C16.4345 32.0758 16.2345 32.006 16.0276 32.0003C15.8207 31.9946 15.6172 32.0532 15.445 32.168C13.6556 33.3631 11.5518 34.0007 9.4 34H9.1C9.28115 33.1149 9.69873 32.2954 10.3084 31.6286C10.918 30.9619 11.6969 30.4727 12.5623 30.2132C13.4277 29.9537 14.3472 29.9336 15.2232 30.1548C16.0991 30.3761 16.8987 30.8306 17.537 31.47C18.2128 32.1366 18.6807 32.9848 18.884 33.912L16.6 32.2ZM14 47.586L12.161 45.747C13.3638 46.0844 14.6362 46.0844 15.839 45.747L14 47.586Z" fill="black"></path><path d="M25 54H21V53C21 52.7348 20.8946 52.4804 20.7071 52.2929C20.5196 52.1054 20.2652 52 20 52C19.7348 52 19.4804 52.1054 19.2929 52.2929C19.1054 52.4804 19 52.7348 19 53V61C19 61.2652 19.1054 61.5196 19.2929 61.7071C19.4804 61.8946 19.7348 62 20 62C20.2652 62 20.5196 61.8946 20.7071 61.7071C20.8946 61.5196 21 61.2652 21 61V56H24V61C24 61.2652 24.1054 61.5196 24.2929 61.7071C24.4804 61.8946 24.7348 62 25 62C25.2652 62 25.5196 61.8946 25.7071 61.7071C25.8946 61.5196 26 61.2652 26 61V55C26 54.7348 25.8946 54.4804 25.7071 54.2929C25.5196 54.1054 25.2652 54 25 54Z" fill="black"></path><path d="M12 39C12.5523 39 13 38.5523 13 38C13 37.4477 12.5523 37 12 37C11.4477 37 11 37.4477 11 38C11 38.5523 11.4477 39 12 39Z" fill="black"></path><path d="M16 39C16.5523 39 17 38.5523 17 38C17 37.4477 16.5523 37 16 37C15.4477 37 15 37.4477 15 38C15 38.5523 15.4477 39 16 39Z" fill="black"></path><path d="M60 51C60 51.2652 60.1054 51.5196 60.2929 51.7071C60.4804 51.8946 60.7348 52 61 52C61.2652 52 61.5196 51.8946 61.7071 51.7071C61.8946 51.5196 62 51.2652 62 51C61.9993 50.0291 61.796 49.069 61.403 48.1812C61.0101 47.2934 60.4362 46.4973 59.718 45.844C60.5523 44.3654 60.9936 42.6977 61 41V37C61 34.0826 59.8411 31.2847 57.7782 29.2218C55.7153 27.1589 52.9174 26 50 26C47.0826 26 44.2847 27.1589 42.2218 29.2218C40.1589 31.2847 39 34.0826 39 37C39 37.2652 39.1054 37.5196 39.2929 37.7071C39.4804 37.8946 39.7348 38 40 38C40.2652 38 40.5196 37.8946 40.7071 37.7071C40.8946 37.5196 41 37.2652 41 37C41 34.6131 41.9482 32.3239 43.636 30.636C45.3239 28.9482 47.6131 28 50 28C52.3869 28 54.6761 28.9482 56.364 30.636C58.0518 32.3239 59 34.6131 59 37V41C58.9964 42.2967 58.6754 43.5729 58.065 44.717C57.1118 44.2462 56.0631 44.0009 55 44H54.889C55.5572 43.35 56.0883 42.5726 56.4509 41.7138C56.8135 40.855 57.0002 39.9322 57 39V34C57 33.7348 56.8946 33.4804 56.7071 33.2929C56.5196 33.1054 56.2652 33 56 33H54.829C54.0632 33.0022 53.3046 32.8524 52.597 32.5594C51.8895 32.2664 51.2471 31.8359 50.707 31.293C50.5195 31.1055 50.2652 31.0002 50 31.0002C49.7348 31.0002 49.4805 31.1055 49.293 31.293C48.7529 31.8359 48.1105 32.2664 47.403 32.5594C46.6954 32.8524 45.9368 33.0022 45.171 33H44C43.7348 33 43.4804 33.1054 43.2929 33.2929C43.1054 33.4804 43 33.7348 43 34V39C42.9998 39.9322 43.1865 40.855 43.5491 41.7138C43.9117 42.5726 44.4428 43.35 45.111 44H45C43.9369 44.0009 42.8882 44.2462 41.935 44.717C41.3246 43.5729 41.0036 42.2967 41 41C41 40.7348 40.8946 40.4804 40.7071 40.2929C40.5196 40.1054 40.2652 40 40 40C39.7348 40 39.4804 40.1054 39.2929 40.2929C39.1054 40.4804 39 40.7348 39 41C39.0064 42.6977 39.4477 44.3654 40.282 45.844C39.5638 46.4973 38.9899 47.2934 38.597 48.1812C38.204 49.069 38.0007 50.0291 38 51V61C38 61.2652 38.1054 61.5196 38.2929 61.7071C38.4804 61.8946 38.7348 62 39 62C39.2652 62 39.5196 61.8946 39.7071 61.7071C39.8946 61.5196 40 61.2652 40 61V56H43V61C43 61.2652 43.1054 61.5196 43.2929 61.7071C43.4804 61.8946 43.7348 62 44 62C44.2652 62 44.5196 61.8946 44.7071 61.7071C44.8946 61.5196 45 61.2652 45 61V53C45 52.7348 44.8946 52.4804 44.7071 52.2929C44.5196 52.1054 44.2652 52 44 52C43.7348 52 43.4804 52.1054 43.2929 52.2929C43.1054 52.4804 43 52.7348 43 53V54H40V51C40.0033 49.8208 40.4233 48.6807 41.1858 47.7811C41.9483 46.8816 43.0042 46.2805 44.167 46.084L45.014 51.164C45.0396 51.3184 45.1011 51.4646 45.1935 51.5908C45.2859 51.7171 45.4067 51.8199 45.5461 51.891C45.6855 51.9621 45.8396 51.9995 45.9961 52.0002C46.1525 52.0009 46.307 51.9649 46.447 51.895L50 50.118L53.553 51.9C53.693 51.9699 53.8475 52.0059 54.0039 52.0052C54.1604 52.0045 54.3145 51.9671 54.4539 51.896C54.5933 51.8249 54.7141 51.7221 54.8065 51.5958C54.8989 51.4696 54.9604 51.3234 54.986 51.169L55.833 46.089C56.9949 46.2853 58.0502 46.8857 58.8125 47.7842C59.5749 48.6827 59.9955 49.8216 60 51V51ZM50 47.586L48.161 45.747C49.3638 46.0843 50.6362 46.0843 51.839 45.747L50 47.586ZM45 39V35H45.171C46.9222 35.0047 48.6238 34.418 50 33.335C51.3762 34.418 53.0778 35.0047 54.829 35H55V39C55 40.3261 54.4732 41.5979 53.5355 42.5355C52.5979 43.4732 51.3261 44 50 44C48.6739 44 47.4021 43.4732 46.4645 42.5355C45.5268 41.5979 45 40.3261 45 39ZM46.764 49.5L46.3 46.714L48.313 48.726L46.764 49.5ZM53.236 49.5L51.688 48.726L53.7 46.714L53.236 49.5Z" fill="black"></path><path d="M61 54H57V53C57 52.7348 56.8946 52.4804 56.7071 52.2929C56.5196 52.1054 56.2652 52 56 52C55.7348 52 55.4804 52.1054 55.2929 52.2929C55.1054 52.4804 55 52.7348 55 53V61C55 61.2652 55.1054 61.5196 55.2929 61.7071C55.4804 61.8946 55.7348 62 56 62C56.2652 62 56.5196 61.8946 56.7071 61.7071C56.8946 61.5196 57 61.2652 57 61V56H60V61C60 61.2652 60.1054 61.5196 60.2929 61.7071C60.4804 61.8946 60.7348 62 61 62C61.2652 62 61.5196 61.8946 61.7071 61.7071C61.8946 61.5196 62 61.2652 62 61V55C62 54.7348 61.8946 54.4804 61.7071 54.2929C61.5196 54.1054 61.2652 54 61 54Z" fill="black"></path><path d="M48 39C48.5523 39 49 38.5523 49 38C49 37.4477 48.5523 37 48 37C47.4477 37 47 37.4477 47 38C47 38.5523 47.4477 39 48 39Z" fill="black"></path><path d="M52 39C52.5523 39 53 38.5523 53 38C53 37.4477 52.5523 37 52 37C51.4477 37 51 37.4477 51 38C51 38.5523 51.4477 39 52 39Z" fill="black"></path><path d="M50 55C50.5523 55 51 54.5523 51 54C51 53.4477 50.5523 53 50 53C49.4477 53 49 53.4477 49 54C49 54.5523 49.4477 55 50 55Z" fill="black"></path><path d="M50 59C50.5523 59 51 58.5523 51 58C51 57.4477 50.5523 57 50 57C49.4477 57 49 57.4477 49 58C49 58.5523 49.4477 59 50 59Z" fill="black"></path><path d="M13 26C14.9869 25.9994 16.9364 25.4606 18.6417 24.4409C20.3469 23.4213 21.7442 21.9588 22.685 20.2088C23.6258 18.4588 24.0751 16.4867 23.9851 14.5019C23.8952 12.5171 23.2693 10.5937 22.174 8.936C22.1017 8.82588 22.0084 8.73112 21.8995 8.65716C21.7905 8.58321 21.6679 8.53151 21.5389 8.50504C21.4099 8.47857 21.2769 8.47785 21.1476 8.50292C21.0183 8.52799 20.8952 8.57835 20.7854 8.65113C20.6757 8.7239 20.5813 8.81764 20.5079 8.92697C20.4344 9.0363 20.3833 9.15906 20.3574 9.28821C20.3316 9.41736 20.3314 9.55034 20.3571 9.67953C20.3828 9.80871 20.4337 9.93156 20.507 10.041C21.7395 11.9042 22.2362 14.1587 21.9008 16.3673C21.5654 18.5759 20.4218 20.5813 18.6918 21.9946C16.9618 23.408 14.7686 24.1286 12.5375 24.0167C10.3064 23.9048 8.19627 22.9684 6.61633 21.3891C5.03639 19.8098 4.09918 17.7001 3.98643 15.469C3.87368 13.2379 4.59341 11.0444 6.00607 9.31386C7.41874 7.5833 9.42369 6.43896 11.6322 6.10271C13.8407 5.76646 16.0953 6.26227 17.959 7.494C18.1802 7.64053 18.4505 7.6932 18.7106 7.6404C18.9706 7.58761 19.199 7.43369 19.3455 7.2125C19.492 6.99131 19.5447 6.72097 19.4919 6.46095C19.4391 6.20093 19.2852 5.97253 19.064 5.826C17.6331 4.8793 16.0005 4.28046 14.2968 4.07735C12.5931 3.87424 10.8655 4.07248 9.25206 4.65624C7.63865 5.24 6.18416 6.19308 5.00485 7.43932C3.82554 8.68555 2.95411 10.1904 2.46021 11.8335C1.9663 13.4767 1.86362 15.2126 2.16037 16.9025C2.45712 18.5924 3.14506 20.1895 4.16923 21.566C5.19339 22.9426 6.52538 24.0605 8.05872 24.8304C9.59206 25.6003 11.2842 26.0008 13 26V26Z" fill="black"></path><path d="M28.293 13.707C28.4816 13.8891 28.7342 13.9899 28.9964 13.9876C29.2586 13.9854 29.5094 13.8802 29.6948 13.6948C29.8802 13.5094 29.9854 13.2586 29.9877 12.9964C29.99 12.7342 29.8892 12.4816 29.707 12.293L28.414 11H38C38.2652 11 38.5196 10.8946 38.7071 10.7071C38.8946 10.5195 39 10.2652 39 9.99996C39 9.73474 38.8946 9.48039 38.7071 9.29285C38.5196 9.10532 38.2652 8.99996 38 8.99996H28.414L29.707 7.70696C29.8025 7.61471 29.8787 7.50437 29.9311 7.38236C29.9835 7.26036 30.0111 7.12914 30.0123 6.99636C30.0134 6.86358 29.9881 6.7319 29.9378 6.60901C29.8875 6.48611 29.8133 6.37446 29.7194 6.28056C29.6255 6.18667 29.5138 6.11242 29.391 6.06214C29.2681 6.01186 29.1364 5.98655 29.0036 5.98771C28.8708 5.98886 28.7396 6.01645 28.6176 6.06886C28.4956 6.12127 28.3852 6.19745 28.293 6.29296L25.293 9.29296C25.1055 9.48049 25.0002 9.73479 25.0002 9.99996C25.0002 10.2651 25.1055 10.5194 25.293 10.707L28.293 13.707Z" fill="black"></path><path d="M38.707 19.293L35.707 16.293C35.5184 16.1109 35.2658 16.0101 35.0036 16.0124C34.7414 16.0146 34.4906 16.1198 34.3052 16.3052C34.1198 16.4906 34.0146 16.7414 34.0123 17.0036C34.01 17.2658 34.1108 17.5184 34.293 17.707L35.586 19H26C25.7348 19 25.4804 19.1054 25.2929 19.2929C25.1054 19.4805 25 19.7348 25 20C25 20.2653 25.1054 20.5196 25.2929 20.7071C25.4804 20.8947 25.7348 21 26 21H35.586L34.293 22.293C34.1975 22.3853 34.1213 22.4956 34.0689 22.6176C34.0165 22.7396 33.9889 22.8709 33.9878 23.0036C33.9866 23.1364 34.0119 23.2681 34.0622 23.391C34.1125 23.5139 34.1867 23.6255 34.2806 23.7194C34.3745 23.8133 34.4862 23.8876 34.609 23.9379C34.7319 23.9881 34.8636 24.0134 34.9964 24.0123C35.1292 24.0111 35.2604 23.9836 35.3824 23.9311C35.5044 23.8787 35.6148 23.8026 35.707 23.707L38.707 20.707C38.8945 20.5195 38.9998 20.2652 38.9998 20C38.9998 19.7349 38.8945 19.4806 38.707 19.293V19.293Z" fill="black"></path><path d="M46 24H58C58.2652 24 58.5196 23.8946 58.7071 23.7071C58.8946 23.5196 59 23.2652 59 23V13C59 12.7348 58.8946 12.4804 58.7071 12.2929C58.5196 12.1054 58.2652 12 58 12C57.7348 12 57.4804 12.1054 57.2929 12.2929C57.1054 12.4804 57 12.7348 57 13V22H46C45.7348 22 45.4804 21.8946 45.2929 21.7071C45.1054 21.5196 45 21.2652 45 21V9.816C45.3203 9.93444 45.6586 9.99669 46 10H58C58.2652 10 58.5196 9.89464 58.7071 9.70711C58.8946 9.51957 59 9.26522 59 9V5C59 4.73478 58.8946 4.48043 58.7071 4.29289C58.5196 4.10536 58.2652 4 58 4H46C45.2044 4 44.4413 4.31607 43.8787 4.87868C43.3161 5.44129 43 6.20435 43 7V21C43 21.7956 43.3161 22.5587 43.8787 23.1213C44.4413 23.6839 45.2044 24 46 24ZM46 6H57V8H46C45.7348 8 45.4804 7.89464 45.2929 7.70711C45.1054 7.51957 45 7.26522 45 7C45 6.73478 45.1054 6.48043 45.2929 6.29289C45.4804 6.10536 45.7348 6 46 6V6Z" fill="black"></path><path d="M55 13C55 12.7348 54.8946 12.4804 54.7071 12.2929C54.5196 12.1054 54.2652 12 54 12H48C47.7348 12 47.4804 12.1054 47.2929 12.2929C47.1054 12.4804 47 12.7348 47 13C47 13.2652 47.1054 13.5196 47.2929 13.7071C47.4804 13.8946 47.7348 14 48 14H54C54.2652 14 54.5196 13.8946 54.7071 13.7071C54.8946 13.5196 55 13.2652 55 13Z" fill="black"></path><path d="M48 17C47.7348 17 47.4804 17.1054 47.2929 17.2929C47.1054 17.4804 47 17.7348 47 18C47 18.2652 47.1054 18.5196 47.2929 18.7071C47.4804 18.8946 47.7348 19 48 19H51C51.2652 19 51.5196 18.8946 51.7071 18.7071C51.8946 18.5196 52 18.2652 52 18C52 17.7348 51.8946 17.4804 51.7071 17.2929C51.5196 17.1054 51.2652 17 51 17H48Z" fill="black"></path><path d="M13 11C13.3978 11 13.7794 11.158 14.0607 11.4393C14.342 11.7206 14.5 12.1022 14.5 12.5C14.5 12.7652 14.6054 13.0196 14.7929 13.2071C14.9804 13.3946 15.2348 13.5 15.5 13.5C15.7652 13.5 16.0196 13.3946 16.2071 13.2071C16.3946 13.0196 16.5 12.7652 16.5 12.5C16.4973 11.749 16.2526 11.0188 15.8023 10.4177C15.352 9.81663 14.72 9.37666 14 9.163V8C14 7.73478 13.8946 7.48043 13.7071 7.29289C13.5196 7.10536 13.2652 7 13 7C12.7348 7 12.4804 7.10536 12.2929 7.29289C12.1054 7.48043 12 7.73478 12 8V9.163C11.1944 9.40098 10.5016 9.92155 10.0489 10.6292C9.5962 11.3368 9.4139 12.1839 9.53547 13.0151C9.65704 13.8463 10.0743 14.6057 10.7107 15.154C11.3472 15.7024 12.16 16.0027 13 16C13.2967 16 13.5867 16.088 13.8334 16.2528C14.08 16.4176 14.2723 16.6519 14.3858 16.926C14.4994 17.2001 14.5291 17.5017 14.4712 17.7926C14.4133 18.0836 14.2704 18.3509 14.0607 18.5607C13.8509 18.7704 13.5836 18.9133 13.2926 18.9712C13.0017 19.0291 12.7001 18.9993 12.426 18.8858C12.1519 18.7723 11.9176 18.58 11.7528 18.3334C11.588 18.0867 11.5 17.7967 11.5 17.5C11.5 17.2348 11.3946 16.9804 11.2071 16.7929C11.0196 16.6054 10.7652 16.5 10.5 16.5C10.2348 16.5 9.98044 16.6054 9.7929 16.7929C9.60536 16.9804 9.50001 17.2348 9.50001 17.5C9.50272 18.251 9.74737 18.9812 10.1977 19.5823C10.648 20.1834 11.28 20.6233 12 20.837V22C12 22.2652 12.1054 22.5196 12.2929 22.7071C12.4804 22.8946 12.7348 23 13 23C13.2652 23 13.5196 22.8946 13.7071 22.7071C13.8946 22.5196 14 22.2652 14 22V20.837C14.8056 20.599 15.4984 20.0784 15.9511 19.3708C16.4038 18.6632 16.5861 17.8161 16.4645 16.9849C16.343 16.1537 15.9257 15.3943 15.2893 14.846C14.6529 14.2976 13.84 13.9973 13 14C12.6022 14 12.2206 13.842 11.9393 13.5607C11.658 13.2794 11.5 12.8978 11.5 12.5C11.5 12.1022 11.658 11.7206 11.9393 11.4393C12.2206 11.158 12.6022 11 13 11V11Z" fill="black"></path></svg>