<svg xmlns="http://www.w3.org/2000/svg" id="Layer_1" data-name="Layer 1" viewBox="0 0 64 64"><path d="M28.93164,10.44238,28.541,12.83887a.99976.99976,0,0,0,1.4707,1.03613L32,12.77588,33.98828,13.875a.99976.99976,0,0,0,1.4707-1.03613l-.39062-2.39649,1.64746-1.68847a.99978.99978,0,0,0-.56494-1.68653l-2.23633-.34179L32.90527,4.5752a1,1,0,0,0-1.81054,0L30.08545,6.72559l-2.23633.34179a.99978.99978,0,0,0-.56494,1.68653ZM30.915,8.62207a1.001,1.001,0,0,0,.75439-.564L32,7.35352l.33057.70459a1.001,1.001,0,0,0,.75439.564l.84033.12793-.64111.65723a.999.999,0,0,0-.271.85937l.14063.86182-.66992-.37012a.9991.9991,0,0,0-.96778,0l-.66992.37012.14063-.86182a.999.999,0,0,0-.271-.85937L30.07471,8.75Z"></path><path d="M58.98389,42.17969A1.00049,1.00049,0,0,0,58,41H56V9a1,1,0,0,0-1-1H43V2a1,1,0,0,0-1-1H22a1,1,0,0,0-1,1V8H9A1,1,0,0,0,8,9V41H6a1.00049,1.00049,0,0,0-.98389,1.17969C7.22266,54.24365,18.5708,63,32,63S56.77734,54.24365,58.98389,42.17969ZM52.38977,51.7326A38.17114,38.17114,0,0,0,46.05133,49.433,26.07,26.07,0,0,0,47.46588,43h9.30023A21.91883,21.91883,0,0,1,52.38977,51.7326ZM33,55.64911v-5.958a53.50683,53.50683,0,0,1,10.24561,1.11505c.0202.00434.03875.00995.05889.01435a19.89907,19.89907,0,0,1-3.97894,5.6668A29.63789,29.63789,0,0,0,33,55.64911Zm-8.3999.8584a20.15,20.15,0,0,1-3.967-5.645A53.27842,53.27842,0,0,1,31,49.6944v5.95471A29.55258,29.55258,0,0,0,24.6001,56.50751Zm-5.15283-23.402L18,32.38184V28a3.00328,3.00328,0,0,1,3-3h2a3.00328,3.00328,0,0,1,3,3v4.38184l-1.44727.72363A.99985.99985,0,0,0,24,34v7H20V34A.99985.99985,0,0,0,19.44727,33.10547ZM22,19a2,2,0,1,1-2,2A2.002,2.002,0,0,1,22,19Zm10,4a2,2,0,1,1,2-2A2.002,2.002,0,0,1,32,23Zm-1,2h2a3.00328,3.00328,0,0,1,3,3v4.38184l-1.44727.72363A.99985.99985,0,0,0,34,34v7H30V34a.99985.99985,0,0,0-.55273-.89453L28,32.38184V28A3.00328,3.00328,0,0,1,31,25Zm11-6a2,2,0,1,1-2,2A2.002,2.002,0,0,1,42,19Zm-1,6h2a3.00328,3.00328,0,0,1,3,3v4.38184l-1.44727.72363A.99985.99985,0,0,0,44,34v7H40V34a.99985.99985,0,0,0-.55273-.89453L38,32.38184V28A3.00328,3.00328,0,0,1,41,25Zm-3,9.61816V41H36V34.61816l1-.5Zm-10,0V41H26V34.61816l1-.5ZM31,43v4.69452a55.12952,55.12952,0,0,0-11.16656,1.29315A24.14668,24.14668,0,0,1,18.46252,43Zm12.665,5.85059A55.50728,55.50728,0,0,0,33,47.69116V43H45.45758a23.99384,23.99384,0,0,1-1.359,5.95642C43.95142,48.92334,43.81348,48.88257,43.665,48.85059ZM54,10v3H50v2h4v3H50v2h4v3H50v2h4v3H50v2h4V41H46V34.61816l1.44727-.72363A.99985.99985,0,0,0,48,33V28a4.99512,4.99512,0,0,0-2.88959-4.51617A3.95915,3.95915,0,0,0,43,17.142V10ZM41,3V17.142a3.95915,3.95915,0,0,0-2.11041,6.3418A5.01183,5.01183,0,0,0,37,25.03094a5.01183,5.01183,0,0,0-1.88959-1.54711A3.96012,3.96012,0,0,0,36,21a4,4,0,0,0-8,0,3.96012,3.96012,0,0,0,.88959,2.48383A5.01183,5.01183,0,0,0,27,25.03094a5.01183,5.01183,0,0,0-1.88959-1.54711A3.95915,3.95915,0,0,0,23,17.142V3ZM10,30h4V28H10V25h4V23H10V20h4V18H10V15h4V13H10V10H21v7.142a3.95915,3.95915,0,0,0-2.11041,6.3418A4.99512,4.99512,0,0,0,16,28v5a.99985.99985,0,0,0,.55273.89453L18,34.61816V41H10Zm6.45422,13a26.21178,26.21178,0,0,0,1.42658,6.46381,38.10989,38.10989,0,0,0-6.273,2.26562A21.91884,21.91884,0,0,1,7.23389,43ZM12.99829,53.28918a37.09254,37.09254,0,0,1,5.62378-1.955,22.55381,22.55381,0,0,0,3.82636,5.84027A15.95859,15.95859,0,0,0,20.034,58.29425,25.02482,25.02482,0,0,1,12.99829,53.28918Zm9.47534,6.02887A25.3963,25.3963,0,0,1,32,57.62207a25.3963,25.3963,0,0,1,9.52637,1.696,27.8191,27.8191,0,0,1-19.05274,0ZM43.966,58.29425A16.0488,16.0488,0,0,0,41.48474,57.151a22.4063,22.4063,0,0,0,3.82269-5.84222,37.14223,37.14223,0,0,1,5.68946,1.98578A25.02812,25.02812,0,0,1,43.966,58.29425Z"></path></svg>